<?xml version="1.0" encoding="iso-8859-1"?>
<!-- Uploaded to: SVG Repo, www.svgrepo.com, Generator: SVG Repo Mixer Tools -->
<svg fill="#000000" height="800px" width="800px" version="1.1" id="icono" xmlns="http://www.w3.org/2000/svg" xmlns:xlink="http://www.w3.org/1999/xlink" 
	 viewBox="0 0 512 512" xml:space="preserve">
	<g transform="translate(1 1)">
	<g>
		<g>
			<path d="M370.2-1H148.333C129.56-1,114.2,14.36,114.2,33.133V50.2v25.6c-5.12,0-8.533,3.413-8.533,8.533v8.533
				c0,5.12,3.413,8.533,8.533,8.533v8.533c-5.12,0-8.533,3.413-8.533,8.533V127c0,5.12,3.413,8.533,8.533,8.533v8.533
				c-5.12,0-8.533,3.413-8.533,8.533v8.533c0,5.12,3.413,8.533,8.533,8.533v273.067v34.133c0,18.773,15.36,34.133,34.133,34.133
				H370.2c18.773,0,34.133-15.36,34.133-34.133v-34.133V50.2V33.133C404.333,14.36,388.973-1,370.2-1z M259.267,485.4
				c-9.387,0-17.067-7.68-17.067-17.067s7.68-17.067,17.067-17.067c9.387,0,17.067,7.68,17.067,17.067S268.653,485.4,259.267,485.4z
				 M131.267,67.267h256v358.4h-256V67.267z M131.267,476.867v-34.133h105.497c-7.117,6.267-11.63,15.43-11.63,25.6
				s4.514,19.333,11.63,25.6h-88.43C138.947,493.933,131.267,486.253,131.267,476.867z M387.267,476.867
				c0,9.387-7.68,17.067-17.067,17.067h-88.43c7.117-6.267,11.63-15.43,11.63-25.6s-4.514-19.333-11.63-25.6h105.497V476.867z
				 M131.267,50.2V33.133c0-9.387,7.68-17.067,17.067-17.067H370.2c9.387,0,17.067,7.68,17.067,17.067V50.2H131.267z"/>
			<path d="M293.4,24.6h-42.667c-5.12,0-8.533,3.413-8.533,8.533c0,5.12,3.413,8.533,8.533,8.533H293.4
				c5.12,0,8.533-3.413,8.533-8.533C301.933,28.013,298.52,24.6,293.4,24.6z"/>
			<path d="M225.133,24.6H216.6c-5.12,0-8.533,3.413-8.533,8.533c0,5.12,3.413,8.533,8.533,8.533h8.533
				c5.12,0,8.533-3.413,8.533-8.533C233.667,28.013,230.253,24.6,225.133,24.6z"/>
			<path d="M267.8,152.986V152.6h-8.533c-52.053,0-93.867,41.813-93.867,93.867c0,3.413,0,5.973,0,9.387l0.853,7.68h0.681
				c7.969,43.831,46.112,76.8,92.332,76.8c52.053,0,93.867-41.813,93.867-93.867C353.133,197.292,315.814,157.263,267.8,152.986z
				 M182.561,242.71c0.047-0.964,0.122-1.919,0.205-2.873c0.02-0.233,0.031-0.468,0.053-0.7
				c3.446-35.896,31.934-64.618,67.915-68.616v75.947h-68.267C182.467,245.206,182.502,243.955,182.561,242.71z M259.267,323.267
				c-36.791,0-67.215-25.388-74.903-59.733H267.8v-93.393c38.593,4.198,68.267,36.547,68.267,76.326
				C336.067,289.133,301.933,323.267,259.267,323.267z"/>
			<path d="M344.6,357.4h-85.333c-5.12,0-8.533,3.413-8.533,8.533s3.413,8.533,8.533,8.533H344.6c5.12,0,8.533-3.413,8.533-8.533
				S349.72,357.4,344.6,357.4z"/>
			<path d="M173.933,374.467h51.2c5.12,0,8.533-3.413,8.533-8.533s-3.413-8.533-8.533-8.533h-51.2c-5.12,0-8.533,3.413-8.533,8.533
				S168.813,374.467,173.933,374.467z"/>
			<path d="M250.733,391.533h-76.8c-5.12,0-8.533,3.413-8.533,8.533c0,5.12,3.413,8.533,8.533,8.533h76.8
				c5.12,0,8.533-3.413,8.533-8.533C259.267,394.947,255.853,391.533,250.733,391.533z"/>
			<path d="M344.6,391.533h-59.733c-5.12,0-8.533,3.413-8.533,8.533c0,5.12,3.413,8.533,8.533,8.533H344.6
				c5.12,0,8.533-3.413,8.533-8.533C353.133,394.947,349.72,391.533,344.6,391.533z"/>
			<path d="M344.6,84.333h-85.333c-5.12,0-8.533,3.413-8.533,8.533c0,5.12,3.413,8.533,8.533,8.533H344.6
				c5.12,0,8.533-3.413,8.533-8.533C353.133,87.747,349.72,84.333,344.6,84.333z"/>
			<path d="M173.933,101.4h51.2c5.12,0,8.533-3.413,8.533-8.533c0-5.12-3.413-8.533-8.533-8.533h-51.2
				c-5.12,0-8.533,3.413-8.533,8.533C165.4,97.987,168.813,101.4,173.933,101.4z"/>
			<path d="M173.933,135.533h76.8c5.12,0,8.533-3.413,8.533-8.533s-3.413-8.533-8.533-8.533h-76.8c-5.12,0-8.533,3.413-8.533,8.533
				S168.813,135.533,173.933,135.533z"/>
			<path d="M344.6,118.467h-59.733c-5.12,0-8.533,3.413-8.533,8.533s3.413,8.533,8.533,8.533H344.6c5.12,0,8.533-3.413,8.533-8.533
				S349.72,118.467,344.6,118.467z"/>
		</g>
	</g>
	</g>
</svg>